#!OML:ASF F:\VICON\USERDATA\INSTALL\rory3\rory3.ASF
:FULLY-SPECIFIED
:DEGREES
808
root 0.670872 15.7184 -4.13175 -17.8496 -42.1786 2.86794
lowerback 21.5289 1.88631 -4.87407
upperback 10.9683 1.16771 0.31474
thorax -0.170604 0.20944 2.85387
lowerneck -20.0298 -4.06832 -12.2512
upperneck 29.8027 -2.95746 3.63783
head 13.7553 -2.25959 2.99609
rclavicle -1.09866e-013 4.55714e-014
rhumerus -19.5601 10.718 -85.9214
rradius 82.0744
rwrist 37.4485
rhand -28.1822 9.36613
rfingers 7.12502
rthumb -1.56184 -20.6079
lclavicle -1.09866e-013 4.55714e-014
lhumerus -20.5572 -13.3204 87.6285
lradius 70.1359
lwrist -18.8692
lhand -16.6419 18.3261
lfingers 7.12502
lthumb 9.58089 48.0883
rfemur -79.9795 -34.6538 33.9421
rtibia 137.793
rfoot 0.50971 -2.7947
rtoes 5.39767
lfemur -50.7838 39.9554 -13.8955
ltibia 117.09
lfoot 7.89228 -20.5144
ltoes -22.5947
809
root 0.671291 15.7179 -4.13026 -17.8786 -42.2086 2.87556
lowerback 21.548 1.88215 -4.86663
upperback 10.9947 1.16201 0.337416
thorax -0.15091 0.204477 2.87509
lowerneck -20.0188 -4.09231 -12.3464
upperneck 29.4398 -3.00911 3.81808
head 13.6067 -2.25336 3.06948
rclavicle -1.10947e-014 -1.70458e-014
rhumerus -19.537 10.7758 -85.8597
rradius 82.1065
rwrist 37.4179
rhand -28.1805 9.39641
rfingers 7.12502
rthumb -1.56027 -20.5776
lclavicle -1.10947e-014 -1.70458e-014
lhumerus -20.7281 -13.2621 87.6236
lradius 70.3255
lwrist -18.688
lhand -17.0054 18.2062
lfingers 7.12502
lthumb 9.23016 47.9842
rfemur -79.9507 -34.6945 33.9161
rtibia 137.807
rfoot 0.48131 -2.75256
rtoes 5.56874
lfemur -50.7248 40.0216 -13.8706
ltibia 117.068
lfoot 7.8514 -20.5051
ltoes -22.7927
810
root 0.671131 15.7169 -4.12993 -17.8732 -42.2336 2.87992
lowerback 21.5521 1.87904 -4.87477
upperback 11.0194 1.15576 0.355331
thorax -0.125643 0.19876 2.9003
lowerneck -20.021 -4.12187 -12.4115
upperneck 29.0437 -3.0768 4.00206
head 13.4491 -2.24896 3.13532
rclavicle 2.21396e-014 -5.34234e-015
rhumerus -19.5432 10.8428 -85.8098
rradius 82.2031
rwrist 37.4102
rhand -28.129 9.35061
rfingers 7.12502
rthumb -1.51053 -20.6238
lclavicle 2.21396e-014 -5.34234e-015
lhumerus -20.8248 -13.3322 87.5668
lradius 70.4496
lwrist -18.5556
lhand -17.4292 18.0846
lfingers 7.12502
lthumb 8.82119 47.8802
rfemur -79.9799 -34.6621 33.9564
rtibia 137.799
rfoot 0.487554 -2.81619
rtoes 5.61367
lfemur -50.7532 40.0543 -13.88
ltibia 117.054
lfoot 7.88944 -20.5045
ltoes -22.5161
811
root 0.67099 15.717 -4.13153 -17.9011 -42.2468 2.94162
lowerback 21.5781 1.90593 -4.92936
upperback 11.0244 1.17852 0.357092
thorax -0.135192 0.207715 2.92808
lowerneck -20.114 -4.1782 -12.3503
upperneck 28.7702 -3.17625 4.06267
head 13.3621 -2.2651 3.1263
rclavicle -2.83144e-014 1.1281e-014
rhumerus -19.5884 10.8016 -85.7827
rradius 82.3305
rwrist 37.3768
rhand -28.0171 9.41833
rfingers 7.12502
rthumb -1.40246 -20.5568
lclavicle -2.83144e-014 1.1281e-014
lhumerus -20.8859 -13.4724 87.4771
lradius 70.4719
lwrist -18.4292
lhand -17.6179 17.6879
lfingers 7.12502
lthumb 8.63913 47.4911
rfemur -79.9967 -34.6315 33.9452
rtibia 137.781
rfoot 0.528204 -2.80253
rtoes 5.33651
lfemur -50.7819 40.0487 -13.9496
ltibia 117.042
lfoot 7.87877 -20.5266
ltoes -22.4174
812
root 0.670677 15.7145 -4.13298 -17.9221 -42.2664 2.98363
lowerback 21.6273 1.93171 -4.98697
upperback 11.0092 1.19845 0.372577
thorax -0.17831 0.216167 2.97258
lowerneck -20.1926 -4.22552 -12.3338
upperneck 28.4871 -3.26185 4.16434
head 13.2689 -2.2748 3.14349
rclavicle 7.87684e-015 -1.21259e-014
rhumerus -19.6477 10.7774 -85.7547
rradius 82.4433
rwrist 37.2787
rhand -27.8917 9.44234
rfingers 7.12502
rthumb -1.28127 -20.5336
lclavicle 7.87684e-015 -1.21259e-014
lhumerus -20.9556 -13.5232 87.4193
lradius 70.4902
lwrist -18.2579
lhand -17.7341 17.4861
lfingers 7.12502
lthumb 8.52696 47.2939
rfemur -80.0298 -34.5786 33.9714
rtibia 137.782
rfoot 0.539418 -2.81163
rtoes 4.46014
lfemur -50.8008 40.1089 -13.9821
ltibia 117.051
lfoot 7.86121 -20.6201
ltoes -22.9344
813
root 0.670019 15.7136 -4.13262 -17.9646 -42.2571 3.06013
lowerback 21.6433 1.9601 -5.04951
upperback 11.0148 1.22249 0.37391
thorax -0.182543 0.225469 3.00419
lowerneck -20.2196 -4.29344 -12.4419
upperneck 28.1054 -3.39701 4.45286
head 13.1357 -2.29171 3.24562
rclavicle 9.33667e-014 -3.8763e-015
rhumerus -19.6192 10.6783 -85.757
rradius 82.4487
rwrist 37.334
rhand -28.0048 9.42996
rfingers 7.12502
rthumb -1.39051 -20.5453
lclavicle 9.33667e-014 -3.8763e-015
lhumerus -20.99 -13.5392 87.3721
lradius 70.5348
lwrist -18.0803
lhand -17.8829 17.4102
lfingers 7.12502
lthumb 8.38334 47.2238
rfemur -80.0455 -34.6432 33.8824
rtibia 137.822
rfoot 0.475368 -2.79775
rtoes 4.9122
lfemur -50.8145 40.1229 -14.0419
ltibia 117.04
lfoot 8.00177 -20.6804
ltoes -23.0904
